<?xml version="1.0" standalone="no"?>
<!DOCTYPE svg PUBLIC "-//W3C//DTD SVG 20010904//EN"
 "http://www.w3.org/TR/2001/REC-SVG-20010904/DTD/svg10.dtd">
<svg version="1.0" xmlns="http://www.w3.org/2000/svg"
 width="2000.000000pt" height="2000.000000pt" viewBox="0 0 2000.000000 2000.000000"
 preserveAspectRatio="xMidYMid meet">

<g transform="translate(0.000000,2000.000000) scale(0.100000,-0.100000)"
fill="#000000" stroke="none">
<path d="M9770 15369 c-374 -23 -838 -100 -1170 -196 -205 -59 -590 -255 -715
-364 -117 -103 -124 -178 -21 -248 65 -44 113 -58 267 -81 314 -46 423 -100
571 -279 193 -235 283 -430 257 -564 -11 -59 -29 -94 -78 -151 -53 -61 -60
-107 -32 -217 25 -100 90 -239 167 -358 68 -103 220 -259 285 -289 52 -25 118
-28 157 -8 70 36 100 99 146 303 41 178 65 244 116 321 102 153 263 216 785
308 156 27 231 52 241 79 8 20 -24 55 -88 97 -47 30 -78 70 -78 103 0 54 66
127 246 272 123 100 187 169 210 230 18 45 17 47 -6 112 -74 203 43 540 258
743 l70 66 -84 16 c-82 17 -85 17 -191 -7 -93 -21 -186 -53 -321 -108 -22 -9
-37 -11 -48 -4 -9 6 -30 54 -48 107 -17 53 -34 99 -36 102 -3 3 -80 10 -170
15 -186 12 -489 12 -690 0z"/>
<path d="M7157 14551 c-154 -94 -164 -103 -106 -90 71 16 131 47 177 92 37 36
70 78 60 77 -2 0 -61 -36 -131 -79z"/>
<path d="M6841 14313 c-45 -3 -63 -12 -118 -53 l-64 -49 43 -12 c70 -18 186
-7 252 25 58 28 86 60 68 78 -11 11 -105 17 -181 11z"/>
<path d="M6703 14066 c-39 -18 -73 -70 -73 -111 0 -45 43 -127 90 -172 62 -60
135 -92 238 -104 152 -17 225 -31 297 -56 132 -47 226 -114 268 -192 50 -92
31 -148 -92 -261 -103 -95 -102 -101 15 -140 109 -37 173 -71 287 -152 155
-110 202 -124 248 -75 58 62 46 150 -46 332 -67 131 -80 185 -47 185 10 0 58
-25 106 -56 98 -62 151 -84 203 -84 49 0 102 27 109 57 9 35 -28 69 -165 155
-76 48 -149 104 -212 165 -201 192 -582 399 -899 488 -119 33 -278 43 -327 21z"/>
<path d="M6112 13737 l-73 -73 26 -47 c74 -131 44 -200 -99 -226 -33 -6 -89
-11 -125 -11 l-66 0 -76 -93 c-138 -168 -339 -444 -339 -465 0 -6 17 -46 38
-90 21 -43 49 -116 62 -160 l24 -82 70 0 c227 0 708 -61 831 -106 11 -3 -2 8
-28 26 -68 46 -155 128 -172 161 -19 36 -19 115 0 168 36 102 161 244 320 364
100 75 181 117 335 175 130 48 186 76 193 97 11 27 -11 63 -64 105 -95 75
-179 108 -344 135 -104 17 -174 43 -247 93 -55 37 -147 88 -173 96 -16 5 -37
-10 -93 -67z"/>
<path d="M13214 13594 c-124 -83 -187 -136 -310 -259 -252 -250 -386 -501
-345 -648 17 -61 57 -99 184 -176 224 -134 398 -158 465 -64 33 48 43 98 46
235 3 146 16 195 76 288 88 137 281 247 370 210 48 -20 49 -36 15 -220 -33
-182 -5 -325 74 -377 38 -26 104 -30 180 -12 35 8 48 7 68 -7 21 -13 24 -21
20 -50 -16 -100 -154 -260 -282 -326 -98 -51 -157 -65 -340 -83 -581 -57 -901
-166 -1083 -370 l-50 -56 -135 -28 c-75 -15 -143 -33 -151 -41 -9 -7 -16 -27
-16 -46 0 -26 7 -39 37 -61 119 -92 144 -130 128 -203 -9 -41 -58 -96 -107
-121 -61 -31 -115 -34 -215 -10 -50 11 -102 21 -116 21 -24 0 -21 5 41 68 73
73 132 172 132 221 0 69 -44 111 -116 111 -42 0 -70 -27 -118 -110 -58 -102
-166 -160 -297 -160 -132 0 -239 67 -295 185 -17 35 -37 61 -55 70 -95 50
-191 -32 -156 -133 54 -157 217 -298 384 -332 74 -16 244 -8 302 14 24 9 46
15 47 13 2 -2 -2 -20 -8 -40 -22 -71 34 -226 111 -309 62 -68 120 -93 217 -93
73 0 87 3 157 38 95 47 169 114 328 298 135 157 185 202 245 225 111 42 196
-24 397 -306 93 -131 156 -200 181 -200 24 0 46 59 46 123 0 74 -46 163 -151
292 -109 135 -123 175 -73 214 60 47 180 12 281 -82 102 -95 156 -185 254
-416 46 -109 72 -151 91 -151 22 0 65 65 130 194 94 188 146 265 247 367 67
67 103 95 165 125 77 37 84 39 180 39 93 0 106 -3 169 -32 143 -68 243 -207
217 -303 -26 -96 -80 -123 -250 -126 -98 -2 -139 -7 -190 -24 -88 -30 -161
-72 -204 -120 -60 -66 -45 -95 65 -130 178 -54 353 -237 336 -348 -8 -48 -56
-92 -133 -123 -46 -18 -78 -23 -149 -23 -78 1 -108 6 -222 42 -73 23 -166 50
-205 58 -100 23 -278 23 -407 0 -141 -25 -221 -19 -306 23 -78 39 -93 57 -142
174 -63 151 -116 187 -280 187 -213 0 -785 -148 -902 -234 -173 -127 -381
-493 -496 -872 -60 -198 -77 -352 -55 -494 12 -74 50 -210 59 -210 3 0 17 20
30 45 33 62 110 132 155 140 48 9 97 -1 136 -28 55 -37 74 -70 78 -141 5 -82
-21 -165 -88 -277 -27 -45 -47 -85 -45 -90 3 -4 31 -18 63 -30 88 -34 197 -29
342 13 l115 34 12 130 c44 467 156 893 305 1162 43 77 136 218 154 233 13 10
29 -1 95 -67 159 -156 266 -306 374 -523 59 -118 68 -131 93 -133 15 -1 99 -2
187 -3 179 -1 234 -14 320 -76 67 -48 123 -141 125 -206 0 -13 3 -23 7 -23 4
0 71 16 149 35 267 66 496 158 649 260 39 26 74 51 79 55 4 5 -8 36 -28 70
-82 139 -133 298 -143 442 -8 120 17 175 67 148 56 -30 162 -205 253 -419 l27
-63 18 23 c72 94 145 256 181 402 72 287 79 691 21 1190 -24 203 -25 239 -5
278 47 90 193 90 240 0 8 -17 15 -39 15 -50 0 -31 15 -33 82 -13 35 11 94 25
131 32 81 15 81 -2 5 199 -187 500 -449 984 -761 1405 l-74 99 -99 1 c-87 1
-106 4 -155 28 -69 34 -151 116 -249 247 -60 80 -81 101 -105 105 -16 3 -127
17 -245 31 -118 15 -281 37 -363 51 -81 13 -151 24 -155 24 -5 0 -39 -21 -78
-46z"/>
<path d="M10890 13291 c-68 -13 -117 -37 -125 -61 -12 -37 13 -77 64 -102 41
-21 60 -23 186 -23 104 0 154 5 196 17 144 45 142 114 -6 153 -71 19 -251 28
-315 16z"/>
<path d="M7283 12885 c-74 -32 -79 -91 -24 -268 44 -141 55 -215 42 -274 -16
-70 -191 -413 -222 -435 -38 -29 -66 -12 -184 109 l-104 108 -1 -40 c-1 -92
-83 -187 -214 -250 -260 -125 -753 -207 -1417 -235 -140 -6 -294 -14 -343 -18
l-90 -7 -53 -160 c-61 -188 -120 -410 -163 -619 l-30 -148 72 -77 73 -76 2 50
c16 337 53 671 80 716 10 16 37 39 61 50 55 27 101 19 150 -26 36 -32 37 -36
37 -102 0 -37 -9 -140 -20 -228 -17 -133 -20 -218 -19 -500 0 -442 7 -486 99
-693 101 -228 113 -235 69 -41 -29 131 -35 259 -13 304 61 128 235 -1 344
-254 19 -46 35 -84 35 -84 0 -1 -21 0 -46 2 -59 4 -89 -12 -114 -64 -53 -109
1 -341 146 -625 35 -69 82 -153 104 -187 37 -60 42 -63 78 -63 25 0 52 -9 76
-25 l36 -25 -20 28 c-11 15 -36 76 -55 136 -108 330 -138 743 -65 887 51 99
149 106 219 17 100 -126 163 -433 165 -790 l0 -196 29 24 c16 13 39 24 52 24
22 0 26 10 59 148 20 81 36 155 36 166 0 21 4 20 95 -17 113 -47 105 -50 105
45 0 190 74 327 219 406 47 26 51 31 32 37 -36 11 -82 -25 -162 -130 -110
-145 -152 -168 -220 -122 l-34 23 -6 120 c-4 66 -14 145 -23 176 -17 60 -70
128 -100 128 -20 0 -21 28 -1 105 30 115 116 208 217 235 20 6 100 17 177 25
286 30 366 -10 486 -245 83 -162 155 -230 172 -163 7 29 -15 98 -72 233 -21
49 -28 81 -28 130 0 85 27 138 127 250 58 66 94 120 157 240 145 274 238 395
371 481 65 42 215 93 436 150 68 18 139 43 159 56 l35 24 21 -28 c66 -87 177
-159 287 -188 70 -19 219 -19 290 0 168 45 323 179 374 322 28 80 -19 153 -98
153 -52 0 -83 -24 -116 -90 -55 -110 -151 -170 -282 -178 -144 -8 -255 54
-318 179 -34 67 -61 89 -108 89 -74 0 -120 -53 -109 -129 l5 -39 -49 35 c-62
44 -89 82 -89 125 0 64 80 110 282 164 188 50 226 84 199 183 -20 74 -98 178
-236 316 -145 146 -193 177 -348 225 -118 37 -153 60 -317 210 -153 139 -217
185 -285 206 -58 17 -71 17 -112 -1z m-451 -1321 c99 -49 263 -178 289 -225 5
-10 6 -25 3 -33 -10 -25 -133 -118 -152 -114 -9 2 -29 29 -44 60 -62 130 -122
88 -174 -120 -24 -100 -34 -118 -57 -109 -47 18 -69 160 -43 275 9 39 14 77
11 84 -10 25 -46 39 -167 63 -67 14 -128 30 -136 37 -31 27 55 64 248 106 98
21 141 17 222 -24z m498 -323 c80 -37 30 -90 -75 -77 -73 8 -105 22 -105 44 0
57 93 74 180 33z m-255 -123 c49 -22 24 -69 -46 -88 -30 -8 -46 -8 -67 2 -49
24 -39 61 24 83 49 18 57 18 89 3z"/>
<path d="M11849 12469 c-46 -46 -2 -178 96 -288 30 -34 58 -73 61 -87 11 -45
-3 -104 -47 -188 -58 -113 -54 -121 54 -111 45 4 119 10 164 14 108 8 128 26
128 109 -1 78 -27 121 -135 220 -48 44 -95 97 -105 118 -16 35 -16 40 0 99 21
81 13 99 -57 120 -75 22 -133 20 -159 -6z"/>
<path d="M11684 12166 c-55 -47 -95 -124 -101 -195 -5 -50 -3 -60 19 -86 33
-38 65 -36 153 6 54 26 74 42 87 69 20 39 24 133 8 174 -28 75 -100 89 -166
32z"/>
<path d="M8601 11788 c-72 -70 -128 -179 -116 -226 6 -24 40 -42 79 -42 12 0
65 -21 116 -46 126 -61 161 -62 213 -3 65 73 39 113 -100 160 -89 29 -109 51
-118 127 -8 74 -23 79 -74 30z"/>
<path d="M15520 11347 c-75 -30 -86 -60 -44 -119 22 -32 49 -53 107 -82 43
-21 80 -36 82 -34 9 8 -69 258 -79 258 -6 0 -36 -11 -66 -23z"/>
<path d="M15337 10923 c4 -21 7 -164 7 -318 0 -214 -4 -311 -18 -410 -49 -353
-154 -609 -341 -830 l-53 -62 38 -60 c101 -160 206 -201 345 -135 90 43 354
224 434 298 99 92 111 114 111 210 l0 78 -204 201 c-211 207 -266 273 -266
322 0 84 91 67 325 -58 64 -33 119 -59 122 -56 13 13 -42 430 -88 662 -40 203
-36 192 -65 164 -34 -32 -30 -55 16 -105 71 -77 50 -115 -76 -140 -155 -30
-274 13 -274 98 0 16 5 37 12 48 10 15 9 30 -5 74 -21 64 -31 74 -20 19z"/>
<path d="M9333 10890 c-17 -10 -37 -28 -42 -39 -58 -108 128 -398 336 -524
256 -156 599 -154 864 3 222 132 414 427 343 528 -19 28 -65 52 -99 52 -54 0
-82 -26 -132 -123 -111 -216 -307 -337 -548 -337 -237 0 -423 116 -527 330
-62 128 -116 158 -195 110z"/>
<path d="M6970 9643 c-19 -2 -46 -6 -60 -9 -24 -5 -23 -6 13 -19 36 -12 83
-42 137 -85 31 -25 236 -70 319 -70 101 0 144 60 74 102 -35 20 -238 66 -324
73 -35 3 -77 7 -94 8 -16 2 -46 1 -65 0z"/>
<path d="M7658 9484 c-16 -8 -28 -21 -28 -29 0 -23 54 -51 121 -64 96 -19 154
3 129 49 -27 51 -162 77 -222 44z"/>
<path d="M14765 9164 c-134 -101 -324 -195 -548 -269 l-128 -42 26 -17 c38
-25 55 -74 55 -158 -1 -180 -112 -444 -323 -765 -66 -100 -110 -153 -182 -221
-77 -73 -95 -95 -95 -118 0 -16 -13 -94 -29 -173 l-30 -144 44 -51 c23 -28 56
-72 72 -98 l29 -46 18 65 c41 155 140 294 220 309 55 10 117 -22 141 -72 34
-72 -8 -219 -99 -343 l-34 -46 149 0 c143 0 148 1 144 20 -16 75 -37 576 -32
780 6 260 24 396 68 530 52 154 125 252 228 302 50 25 67 28 156 28 89 0 106
-3 157 -28 96 -47 195 -174 242 -310 7 -20 28 -10 301 144 299 168 376 260
295 352 -35 41 -100 76 -280 152 -184 78 -310 143 -410 209 -45 31 -86 56 -89
56 -3 0 -33 -21 -66 -46z"/>
<path d="M7635 8935 c-55 -13 -152 -39 -215 -57 l-115 -34 -6 -229 c-6 -207
-22 -367 -49 -490 -5 -22 -7 -41 -5 -43 2 -2 54 13 117 33 131 43 196 49 226
22 47 -43 32 -166 -28 -239 -32 -38 -156 -108 -193 -108 -42 0 -8 -10 69 -21
114 -15 240 -47 309 -78 187 -85 160 -251 -40 -251 -37 0 -162 27 -210 45 -11
4 3 -8 30 -27 85 -60 152 -126 177 -177 l24 -48 35 24 c81 56 202 78 288 53
19 -5 37 -7 40 -5 2 3 -5 56 -17 118 -60 311 -97 675 -88 858 10 204 56 393
121 491 14 21 25 42 25 47 0 13 -150 108 -199 126 -62 22 -178 18 -296 -10z"/>
<path d="M13913 8813 c-13 -2 -23 -11 -23 -19 0 -19 7 -18 37 6 14 11 22 19
17 19 -5 -1 -19 -4 -31 -6z"/>
<path d="M3911 8545 c15 -34 24 -91 34 -220 8 -96 20 -196 26 -222 25 -103 88
-196 167 -245 32 -20 33 -20 47 -2 8 11 18 30 21 44 3 14 10 41 15 60 39 151
-41 384 -180 528 -39 40 -125 102 -142 102 -5 0 1 -20 12 -45z"/>
<path d="M8894 8362 c3 -18 13 -140 21 -270 22 -343 92 -1022 104 -1022 3 0
18 33 33 73 16 41 47 102 70 137 24 35 48 72 55 84 10 19 38 299 36 371 0 17
-19 80 -40 140 -22 61 -48 145 -58 187 -16 68 -22 78 -47 89 -31 13 -70 63
-111 144 -14 28 -35 61 -47 75 l-21 25 5 -33z"/>
<path d="M13287 8190 c-3 -19 -8 -96 -11 -170 -9 -226 -54 -532 -117 -805 -17
-73 -26 -131 -20 -133 32 -11 109 -72 141 -113 l37 -48 10 32 c9 29 6 36 -35
82 -91 101 -114 204 -60 262 47 52 111 61 179 27 l26 -13 22 97 c46 205 46
207 13 254 -67 98 -132 254 -133 321 0 23 -11 87 -23 142 -21 88 -24 96 -29
65z"/>
<path d="M10318 8180 c-119 -20 -231 -106 -295 -226 -24 -44 -45 -68 -82 -92
-49 -32 -103 -91 -154 -166 l-26 -40 6 85 c3 50 1 101 -6 125 -13 50 -59 114
-93 133 -25 13 -29 11 -99 -48 -67 -56 -232 -173 -257 -182 -11 -4 -25 -99
-38 -243 -5 -65 -4 -78 7 -73 127 55 142 59 235 59 86 0 164 -14 164 -30 0 -4
-9 -35 -20 -69 -30 -96 -50 -225 -57 -368 -3 -71 -3 -128 0 -125 3 3 32 41 64
85 93 125 175 220 296 344 157 159 244 233 270 229 43 -6 27 -35 -75 -139
-109 -111 -216 -240 -315 -379 -83 -118 -146 -220 -140 -226 4 -5 132 27 172
43 8 2 16 -34 24 -114 14 -131 61 -421 90 -553 18 -82 18 -86 1 -110 -96 -135
-108 -462 -29 -750 38 -135 160 -410 182 -410 5 0 21 8 35 19 115 80 322 170
494 215 l91 23 34 54 c39 60 138 258 132 262 -2 1 -37 24 -77 50 -40 26 -90
64 -112 83 -22 20 -40 34 -40 30 0 -31 -61 -399 -65 -394 -9 10 -36 356 -30
386 4 20 11 89 16 152 5 63 13 156 18 205 5 50 10 176 10 281 1 164 -1 193
-15 205 -9 7 -29 36 -45 64 -45 78 -39 154 17 236 25 37 25 38 14 140 -6 57
-22 172 -36 255 l-24 151 19 44 c18 40 20 41 26 19 19 -81 47 -236 67 -375
l22 -161 47 10 c82 17 237 -36 366 -125 24 -17 46 -29 49 -26 3 2 1 71 -3 152
l-8 147 -90 29 c-207 68 -374 179 -411 274 -35 93 9 210 94 247 64 29 132 20
233 -30 52 -26 79 -35 79 -26 0 24 -52 159 -97 250 l-45 91 -71 12 c-98 16
-242 66 -300 103 -66 42 -97 90 -97 150 l0 48 -37 -1 c-21 -1 -59 -5 -85 -9z
m190 -410 l14 -35 -31 29 c-34 33 -40 49 -14 44 9 -2 23 -19 31 -38z"/>
<path d="M15123 7711 c-71 -24 -120 -60 -207 -151 -153 -161 -300 -427 -538
-974 -76 -177 -141 -328 -144 -336 -8 -23 350 345 487 501 66 75 158 185 205
245 75 96 262 369 349 510 31 50 65 70 65 38 0 -20 -67 -128 -230 -374 -207
-310 -424 -588 -673 -860 -53 -58 -94 -106 -93 -108 6 -5 182 70 255 109 428
231 750 600 846 969 22 82 16 244 -10 308 -22 54 -81 104 -146 125 -65 21
-101 21 -166 -2z"/>
<path d="M3864 7260 c43 -147 192 -302 371 -385 111 -52 162 -65 260 -65 67 0
165 16 165 26 0 2 -21 31 -46 63 -54 70 -100 93 -374 191 -196 70 -292 115
-346 162 -36 31 -37 32 -30 8z"/>
<path d="M5595 7173 c33 -140 441 -424 775 -541 168 -59 300 -73 300 -33 0 63
-147 206 -330 320 -259 162 -562 281 -717 281 -33 0 -35 -1 -28 -27z"/>
<path d="M7411 7039 c-66 -140 -106 -265 -136 -423 -62 -340 -70 -644 -21
-881 13 -66 81 -205 99 -205 21 0 53 39 85 105 95 195 148 524 139 875 -4 181
-7 210 -26 250 -16 35 -21 65 -21 135 0 69 -6 106 -25 159 -13 38 -29 74 -34
79 -7 7 -26 -23 -60 -94z"/>
<path d="M7555 7079 l17 -31 15 22 c17 25 17 25 -20 34 l-28 7 16 -32z"/>
<path d="M5626 6987 c-3 -15 -8 -39 -12 -53 -5 -27 -48 -77 -73 -85 -11 -4 4
-53 69 -215 88 -222 132 -316 187 -402 27 -43 45 -58 95 -82 34 -16 66 -26 70
-22 5 5 14 37 20 72 l12 63 -44 35 c-60 47 -180 170 -180 183 0 7 34 10 100 7
l101 -3 -6 25 c-35 141 -144 317 -274 444 -59 59 -60 59 -65 33z"/>
<path d="M13410 6884 c-7 -19 -10 -37 -8 -40 3 -2 30 2 61 9 l56 12 -49 28
-48 27 -12 -36z"/>
<path d="M12059 6716 c-212 -57 -346 -368 -414 -961 -14 -125 -45 -513 -45
-565 0 -22 8 -28 72 -48 39 -12 75 -19 79 -15 15 15 159 365 223 540 92 254
178 565 227 820 14 74 31 104 50 86 16 -16 -15 -169 -106 -528 -84 -330 -160
-575 -274 -882 l-30 -83 67 -34 67 -34 43 47 c73 78 202 279 273 426 129 267
183 481 183 730 0 222 -39 350 -134 439 -74 69 -173 91 -281 62z"/>
<path d="M13900 6628 c90 -189 92 -334 5 -388 -135 -84 -264 82 -282 362 -3
48 -8 88 -11 88 -2 0 -19 -13 -38 -29 -18 -17 -61 -45 -94 -63 l-60 -33 0 -85
c0 -77 -12 -189 -26 -244 -3 -14 12 -50 44 -106 l49 -85 66 -7 c89 -9 181 -54
238 -116 24 -26 49 -56 54 -66 10 -18 13 -18 42 -2 18 9 43 31 56 48 45 61
139 230 208 374 l69 143 0 136 0 135 -27 -7 c-46 -12 -184 -6 -256 11 -38 9
-70 16 -72 16 -2 0 14 -37 35 -82z"/>
<path d="M8962 6655 c0 -16 2 -22 5 -12 2 9 2 23 0 30 -3 6 -5 -1 -5 -18z"/>
<path d="M7739 6489 c105 -225 153 -312 212 -382 116 -137 214 -326 264 -507
29 -105 54 -170 65 -170 4 0 24 7 43 15 20 8 39 15 42 15 3 0 5 -27 5 -59 0
-117 60 -332 132 -475 34 -67 37 -68 -71 19 -134 108 -288 174 -374 160 -89
-15 -173 -68 -205 -131 l-18 -34 -79 71 c-44 39 -98 85 -120 103 l-40 31 25
-40 c13 -22 66 -105 118 -184 58 -90 103 -171 117 -214 31 -91 91 -190 181
-297 107 -128 138 -150 227 -161 188 -23 371 -78 516 -155 46 -24 87 -44 92
-44 5 0 26 10 47 23 20 13 73 38 117 56 44 18 82 35 84 37 2 2 -3 12 -11 21
-32 38 -30 45 5 19 l36 -28 88 22 c48 12 89 23 91 25 2 1 -30 54 -71 116 -148
226 -294 507 -420 809 -121 291 -177 477 -149 494 21 13 62 -63 158 -289 168
-395 379 -793 552 -1040 l52 -75 73 6 c39 4 73 8 75 9 6 5 -161 651 -203 784
-154 488 -303 740 -492 832 -61 30 -76 34 -148 33 -55 -1 -96 -7 -132 -21
l-53 -21 -21 46 c-50 111 -119 273 -149 354 l-33 86 -66 12 c-228 39 -428 112
-588 217 -19 13 -16 0 26 -88z"/>
<path d="M10730 6248 l0 -187 37 16 c63 26 147 13 237 -35 l75 -41 10 52 c22
108 33 186 29 207 -2 18 -21 27 -108 56 -58 18 -144 53 -192 77 l-88 43 0
-188z"/>
<path d="M7630 5828 c0 -233 -3 -432 -6 -444 -4 -16 7 -29 64 -67 39 -25 108
-76 154 -113 45 -37 89 -71 95 -77 10 -7 9 1 -1 31 -24 68 -62 234 -115 502
-28 141 -60 287 -70 325 -19 68 -105 265 -116 265 -3 0 -5 -190 -5 -422z"/>
<path d="M6170 5764 c-58 -8 -150 -23 -205 -33 -289 -56 -543 -71 -635 -38
l-45 16 63 -59 c106 -101 296 -181 497 -210 157 -22 392 -3 511 41 l57 22 -79
32 c-113 46 -191 87 -257 136 l-59 44 29 12 c41 16 170 33 266 34 55 0 75 3
62 9 -28 12 -82 10 -205 -6z"/>
<path d="M14192 5380 c-88 -24 -208 -86 -329 -167 -96 -64 -105 -74 -172 -173
-133 -201 -307 -371 -534 -523 l-68 -45 58 -17 c74 -21 152 -49 225 -82 l57
-25 133 26 c326 66 611 204 808 392 170 163 238 302 216 447 -9 59 -71 131
-141 163 -62 29 -160 31 -253 4z"/>
<path d="M7519 4948 l-12 -45 -151 -7 c-83 -3 -263 -9 -401 -12 -275 -7 -382
4 -496 50 -58 23 -58 23 -47 2 19 -35 139 -150 203 -193 142 -95 323 -169 507
-204 122 -24 341 -31 454 -16 l60 9 26 -40 c22 -33 43 -46 143 -90 124 -55
135 -58 135 -42 0 6 -49 83 -108 173 -60 89 -148 225 -197 302 -48 77 -91 144
-96 149 -5 5 -14 -11 -20 -36z"/>
</g>
</svg>
